<svg xmlns="http://www.w3.org/2000/svg" viewBox="0 0 1144 174" role="img" aria-label="ASKBETTER">
<path d="M 267 163 L 266 162 L 259 169 L 265 163 L 266 164 Z M 265 163 L 266 162 L 267 163 L 266 164 Z M 574 161 L 574 168 L 575 168 L 575 162 Z M 361 159 L 360 160 L 362 162 L 363 161 Z M 361 161 L 362 160 L 363 161 L 362 162 Z M 360 160 L 361 159 L 362 160 L 361 161 Z M 64 157 L 61 164 L 62 167 L 63 165 L 62 161 Z M 61 164 L 62 163 L 63 165 L 62 166 Z M 358 155 L 359 156 L 358 158 L 360 157 Z M 358 157 L 359 156 L 360 157 L 359 158 Z M 232 155 L 229 161 L 228 159 L 227 160 L 224 159 L 224 160 L 227 161 L 225 164 L 226 163 L 227 165 L 223 169 L 222 168 L 223 169 L 221 171 L 219 170 L 215 173 L 217 172 L 218 173 L 217 172 L 220 170 L 221 171 L 227 165 Z M 226 163 L 227 162 L 228 163 L 227 164 Z M 227 161 L 228 160 L 229 162 L 228 163 Z M 1099 153 L 1105 162 L 1104 159 L 1101 156 L 1102 155 Z M 171 150 L 170 152 L 168 152 L 169 155 L 171 153 Z M 135 149 L 134 151 L 135 154 L 136 152 Z M 134 151 L 135 150 L 136 152 L 135 153 Z M 349 147 L 351 146 L 352 147 L 350 145 Z M 349 146 L 350 145 L 351 146 L 350 147 Z M 278 141 L 277 144 L 276 141 L 277 144 L 276 147 L 275 145 L 276 148 L 279 143 Z M 440 139 L 440 147 L 438 148 L 438 153 L 439 151 L 440 152 L 440 167 Z M 168 139 L 168 141 L 171 143 L 171 146 L 171 142 L 173 141 L 172 139 L 170 142 L 169 139 Z M 396 137 L 411 154 L 415 160 L 425 171 L 424 172 L 427 173 L 428 172 L 427 173 L 423 169 L 424 167 L 426 169 L 426 168 L 424 167 L 423 168 L 413 157 L 414 155 L 413 156 Z M 424 172 L 425 171 L 426 172 L 425 173 Z M 569 136 L 569 139 L 571 139 Z M 221 134 L 223 137 L 222 139 L 224 140 L 225 146 L 224 139 Z M 1074 125 L 1074 127 L 1075 126 L 1076 127 L 1079 126 L 1079 125 Z M 334 125 L 336 127 L 335 128 L 336 130 L 338 130 L 340 132 L 339 130 L 336 129 L 337 128 Z M 335 128 L 336 127 L 337 128 L 336 129 Z M 332 122 L 330 120 L 329 121 L 329 123 L 330 123 L 331 121 Z M 329 121 L 330 120 L 331 121 L 330 122 Z M 224 118 L 226 120 L 224 121 L 225 122 L 226 120 L 229 123 L 228 126 L 231 127 L 230 129 L 231 128 L 232 129 L 231 132 L 232 130 L 234 134 L 235 144 L 234 145 L 233 153 L 234 148 L 236 147 L 235 146 L 235 138 L 234 137 L 233 130 L 229 123 Z M 228 125 L 229 124 L 230 126 L 229 127 Z M 34 118 L 28 131 L 28 133 L 19 151 L 16 160 L 11 169 L 10 167 L 11 169 L 10 173 Z M 282 117 L 282 119 L 280 122 L 280 134 L 282 138 Z M 962 116 L 963 117 L 963 121 L 962 122 L 963 140 L 962 141 L 962 144 L 964 144 L 965 142 L 963 141 L 963 117 L 964 116 Z M 208 109 L 209 110 L 208 111 L 210 110 L 213 112 L 211 113 L 214 112 L 215 113 L 214 114 L 219 117 L 218 116 L 220 115 L 222 117 L 221 118 L 222 119 L 221 118 L 222 117 L 218 114 L 219 113 L 218 114 L 217 112 L 216 113 L 215 111 L 213 112 Z M 216 115 L 217 114 L 219 115 L 218 116 Z M 214 114 L 215 113 L 217 114 L 216 115 Z M 272 104 L 275 110 L 274 108 L 275 105 Z M 273 105 L 274 104 L 275 106 L 274 107 Z M 547 91 L 549 92 L 550 94 L 551 93 L 553 95 L 550 92 Z M 262 90 L 261 91 L 265 95 L 266 94 L 268 96 L 267 97 L 269 100 L 268 98 L 269 97 L 267 94 Z M 267 97 L 268 96 L 269 97 L 268 98 Z M 264 94 L 265 93 L 266 94 L 265 95 Z M 263 93 L 264 92 L 265 93 L 264 94 Z M 262 92 L 263 91 L 264 92 L 263 93 Z M 261 91 L 262 90 L 263 91 L 262 92 Z M 1088 90 L 1099 90 L 1093 90 L 1092 89 Z M 1107 87 L 1101 88 L 1106 88 Z M 554 79 L 555 80 L 553 81 L 553 83 L 550 85 L 553 84 L 555 80 Z M 513 72 L 514 74 L 515 73 Z M 513 73 L 514 72 L 515 73 L 514 74 Z M 163 69 L 163 71 L 166 72 L 165 76 L 168 80 L 169 79 L 170 80 L 169 82 L 171 85 L 170 79 L 168 80 L 167 79 L 168 77 L 167 75 L 166 76 L 165 75 L 166 73 L 165 69 L 164 71 Z M 169 82 L 170 81 L 171 82 L 170 83 Z M 166 77 L 167 76 L 168 77 L 167 78 Z M 1116 65 L 1115 67 L 1116 68 L 1116 73 L 1115 74 L 1116 75 Z M 340 63 L 331 73 L 330 71 L 329 71 L 329 73 L 331 73 Z M 207 62 L 215 69 L 217 69 L 226 74 L 228 74 L 233 77 L 242 80 L 251 85 L 240 79 L 233 77 L 212 67 Z M 962 78 L 964 77 L 962 74 L 963 73 L 963 58 L 962 56 L 965 53 L 1021 53 L 962 53 L 962 68 L 963 69 Z M 880 53 L 881 54 L 883 53 L 911 53 Z M 687 53 L 714 53 L 717 56 L 717 173 L 717 53 Z M 618 53 L 671 53 L 672 54 L 675 53 Z M 1103 52 L 1102 53 L 1074 53 L 1074 57 L 1074 55 L 1075 54 L 1076 55 L 1078 53 L 1102 53 Z M 794 53 L 762 53 L 761 52 L 760 53 L 761 54 L 761 156 L 761 55 L 764 53 Z M 257 53 L 255 52 L 253 53 L 252 56 L 253 53 L 255 54 Z M 254 53 L 255 52 L 256 53 L 255 54 Z M 140 50 L 145 61 L 144 63 L 145 62 L 146 63 L 149 72 L 160 96 L 159 97 L 161 98 L 160 99 L 162 100 L 161 102 L 163 103 L 172 123 L 172 126 L 168 131 L 165 140 L 165 154 L 168 161 L 167 162 L 169 163 L 168 164 L 172 167 L 174 166 L 172 167 L 170 165 L 165 152 L 165 141 L 167 134 L 172 126 L 172 123 L 161 99 L 162 95 L 161 97 L 156 88 L 154 81 L 149 72 L 147 65 Z M 350 49 L 348 51 L 349 52 L 347 55 L 341 61 L 351 50 Z M 348 51 L 349 50 L 350 51 L 349 52 Z M 349 50 L 350 49 L 351 50 L 350 51 Z M 355 45 L 354 46 L 353 45 L 352 48 Z M 352 46 L 353 45 L 354 46 L 353 47 Z M 230 45 L 232 46 L 229 47 L 233 46 L 235 48 L 233 49 L 238 53 L 239 52 L 241 54 L 243 59 L 245 58 L 244 59 L 237 49 L 238 50 L 237 52 L 234 49 L 235 47 Z M 237 52 L 238 51 L 239 52 L 238 53 Z M 218 44 L 215 44 L 214 43 L 215 44 L 212 46 L 213 47 L 212 48 L 210 47 L 208 49 L 206 53 L 206 60 L 206 53 L 208 50 L 209 51 L 216 46 L 214 45 L 215 44 Z M 208 49 L 209 48 L 210 50 L 209 51 Z M 209 48 L 210 47 L 211 48 L 210 49 Z M 212 46 L 213 45 L 215 46 L 214 47 Z M 362 37 L 360 39 L 359 38 L 358 41 Z M 358 39 L 359 38 L 360 39 L 359 40 Z M 169 34 L 168 35 L 169 37 L 166 38 L 167 41 L 165 47 L 166 42 L 170 35 Z M 166 38 L 167 37 L 168 39 L 167 40 Z M 168 35 L 169 34 L 170 35 L 169 36 Z M 420 31 L 418 33 L 417 32 L 414 37 L 418 33 L 419 34 L 418 33 Z M 415 34 L 416 33 L 417 34 L 416 35 Z M 416 33 L 417 32 L 418 33 L 417 34 Z M 171 30 L 172 32 L 171 33 L 173 31 Z M 171 31 L 172 30 L 173 31 L 172 32 Z M 367 29 L 362 35 L 366 32 L 365 31 Z M 362 34 L 363 33 L 364 34 L 363 35 Z M 363 33 L 364 32 L 365 33 L 364 34 Z M 364 32 L 365 31 L 366 32 L 365 33 Z M 440 26 L 439 28 L 438 27 L 438 32 L 439 31 L 440 32 L 440 35 Z M 370 25 L 369 28 L 371 26 Z M 369 26 L 370 25 L 371 26 L 370 27 Z M 265 24 L 272 32 L 271 31 L 272 30 L 269 29 L 270 27 L 267 24 L 266 25 Z M 270 30 L 271 29 L 272 30 L 271 31 Z M 268 27 L 269 26 L 270 27 L 269 28 Z M 267 26 L 268 25 L 269 26 L 268 27 Z M 266 25 L 267 24 L 268 25 L 267 26 Z M 536 21 L 538 22 L 539 24 L 540 23 L 541 24 Z M 184 19 L 183 20 L 184 21 L 185 20 Z M 183 20 L 184 19 L 185 20 L 184 21 Z M 1030 18 L 1031 19 L 1031 22 L 1030 23 L 1030 27 L 1031 28 L 1030 31 L 1030 35 L 1031 36 L 1031 59 L 1030 60 L 1031 61 L 1031 66 L 1030 67 L 1031 68 L 1030 69 L 1031 72 L 1031 86 L 1030 87 L 1031 88 L 1031 99 L 1030 100 L 1030 105 L 1031 106 L 1031 116 L 1030 117 L 1031 119 L 1031 127 L 1030 128 L 1031 150 L 1030 151 L 1030 168 L 1031 169 L 1031 172 L 1030 173 L 1031 173 L 1031 165 L 1030 164 L 1031 161 L 1031 18 Z M 915 17 L 915 37 L 916 36 L 918 37 L 918 40 L 917 41 L 917 50 L 918 51 L 918 119 L 917 120 L 918 122 L 917 123 L 918 125 L 918 173 L 918 17 Z M 915 33 L 916 32 L 917 33 L 916 34 Z M 915 29 L 917 28 L 918 31 L 916 32 Z M 915 24 L 917 23 L 918 26 L 916 27 Z M 915 22 L 916 21 L 917 22 L 916 23 Z M 799 17 L 798 18 L 799 19 L 798 20 L 798 26 L 795 32 L 795 49 L 796 50 L 795 51 L 797 51 L 799 49 L 799 42 L 800 41 L 801 42 L 801 33 L 800 34 L 799 33 Z M 796 31 L 799 36 L 799 46 L 796 49 L 795 48 L 795 32 Z M 679 16 L 679 19 L 680 20 L 679 41 L 680 42 L 680 49 L 683 50 L 683 17 L 683 21 L 682 22 Z M 681 41 L 682 40 L 683 42 L 682 43 Z M 682 34 L 683 35 L 683 38 L 681 40 L 680 39 L 680 35 Z M 682 24 L 683 25 L 683 33 L 681 34 L 680 31 Z M 422 16 L 429 16 L 431 18 L 430 19 L 433 16 Z M 430 17 L 431 16 L 432 17 L 431 18 Z M 325 16 L 326 17 L 326 80 L 330 75 L 327 78 L 326 77 L 326 16 Z M 285 16 L 284 17 L 284 21 L 285 22 L 285 30 L 284 31 L 284 36 L 285 37 L 285 47 L 284 48 L 285 51 L 285 101 L 284 102 L 284 106 L 285 107 L 285 131 L 284 132 L 284 136 L 285 137 L 285 148 L 284 149 L 285 160 L 284 161 L 284 168 L 285 169 L 285 173 L 285 18 L 286 17 Z M 112 16 L 125 16 L 126 17 L 129 26 L 133 33 L 133 35 L 139 48 L 126 17 L 125 16 Z" fill="#131A2E" fill-rule="evenodd"/>
<path d="M 198 121 L 197 122 L 191 122 L 183 126 L 176 134 L 173 142 L 173 151 L 177 161 L 184 168 L 190 171 L 194 171 L 195 172 L 205 171 L 211 168 L 219 160 L 222 152 L 222 140 L 218 132 L 209 124 L 204 122 L 199 122 Z M 1034 16 L 1034 51 L 1033 52 L 1033 60 L 1034 61 L 1034 72 L 1033 73 L 1033 77 L 1034 78 L 1034 87 L 1033 88 L 1033 96 L 1034 97 L 1034 100 L 1033 101 L 1033 127 L 1034 128 L 1033 156 L 1034 157 L 1034 167 L 1033 168 L 1033 173 L 1073 173 L 1073 124 L 1074 123 L 1081 123 L 1087 133 L 1090 136 L 1115 173 L 1143 173 L 1143 144 L 1124 119 L 1135 115 L 1143 109 L 1143 31 L 1139 27 L 1129 21 L 1111 16 Z M 1073 52 L 1074 51 L 1103 51 L 1110 54 L 1116 60 L 1119 69 L 1118 76 L 1115 82 L 1110 87 L 1099 91 L 1074 91 L 1073 90 Z M 920 16 L 920 173 L 1023 173 L 1023 145 L 961 145 L 960 144 L 960 114 L 961 113 L 962 114 L 986 114 L 987 113 L 990 114 L 1003 114 L 1004 113 L 1006 114 L 1014 114 L 1015 113 L 1015 79 L 961 79 L 960 78 L 960 52 L 961 51 L 1022 51 L 1023 50 L 1023 17 L 1022 16 Z M 802 16 L 802 51 L 836 51 L 838 56 L 838 64 L 837 65 L 837 68 L 838 69 L 838 105 L 837 106 L 837 111 L 838 112 L 837 113 L 838 114 L 837 116 L 838 119 L 837 121 L 838 143 L 837 144 L 837 173 L 877 173 L 877 53 L 876 52 L 877 51 L 912 51 L 912 16 Z M 686 16 L 685 17 L 686 19 L 685 20 L 685 47 L 686 48 L 685 49 L 686 51 L 718 51 L 719 52 L 719 173 L 759 173 L 759 52 L 760 51 L 794 51 L 795 50 L 794 49 L 794 32 L 795 31 L 795 28 L 794 27 L 794 16 Z M 576 16 L 576 173 L 680 173 L 680 153 L 681 152 L 681 149 L 680 148 L 681 146 L 680 145 L 617 145 L 616 144 L 616 114 L 617 113 L 618 114 L 635 114 L 636 113 L 637 114 L 638 113 L 639 114 L 671 114 L 672 113 L 672 79 L 617 79 L 616 78 L 616 52 L 617 51 L 677 51 L 677 16 Z M 441 16 L 441 173 L 543 173 L 547 171 L 556 163 L 561 156 L 564 150 L 567 140 L 567 122 L 564 112 L 560 104 L 556 99 L 544 91 L 552 82 L 557 70 L 557 65 L 558 64 L 557 49 L 555 43 L 550 34 L 543 27 L 537 23 L 516 16 Z M 481 112 L 482 111 L 512 111 L 521 115 L 527 123 L 527 132 L 525 136 L 519 142 L 515 144 L 512 144 L 511 145 L 482 145 L 481 144 Z M 481 51 L 482 50 L 506 50 L 511 52 L 516 56 L 518 61 L 518 69 L 516 73 L 512 77 L 508 79 L 482 79 L 481 78 Z M 286 16 L 287 17 L 286 18 L 286 173 L 325 173 L 325 115 L 326 114 L 338 129 L 340 130 L 341 133 L 346 138 L 373 173 L 424 173 L 425 172 L 426 173 L 361 97 L 361 95 L 376 78 L 378 77 L 385 68 L 388 66 L 431 17 L 430 18 L 429 17 L 422 17 L 421 16 L 403 16 L 402 17 L 401 16 L 380 16 L 326 81 L 325 80 L 325 17 L 324 16 L 323 17 L 321 16 Z M 423 172 L 424 171 L 425 172 L 424 173 Z M 414 34 L 415 33 L 416 34 L 415 35 Z M 415 33 L 416 32 L 417 33 L 416 34 Z M 416 32 L 417 31 L 418 32 L 417 33 Z M 81 16 L 75 27 L 75 29 L 72 34 L 69 43 L 67 45 L 67 47 L 58 66 L 55 75 L 35 117 L 35 119 L 32 124 L 32 126 L 11 173 L 57 173 L 61 161 L 67 149 L 68 144 L 71 142 L 73 143 L 74 142 L 75 143 L 88 143 L 89 142 L 90 143 L 92 142 L 95 143 L 96 142 L 98 143 L 99 142 L 106 142 L 107 143 L 119 143 L 120 142 L 124 143 L 125 142 L 127 143 L 130 142 L 134 144 L 134 146 L 137 151 L 145 173 L 176 173 L 172 168 L 167 164 L 168 163 L 166 162 L 167 161 L 164 154 L 164 140 L 166 133 L 171 126 L 171 123 L 162 103 L 160 102 L 161 100 L 159 99 L 160 98 L 158 97 L 159 96 L 148 72 L 148 70 L 135 42 L 132 33 L 128 26 L 125 17 L 112 17 L 111 16 L 110 17 L 96 17 L 95 16 L 85 16 L 84 17 Z M 101 67 L 105 73 L 109 85 L 113 92 L 115 99 L 120 109 L 118 111 L 84 111 L 83 110 L 85 103 L 88 98 L 88 96 L 92 89 L 94 82 Z M 143 63 L 144 62 L 145 63 L 144 64 Z M 199 14 L 183 22 L 179 25 L 171 34 L 165 48 L 165 53 L 164 54 L 165 55 L 164 56 L 165 68 L 169 78 L 171 79 L 172 83 L 182 93 L 192 100 L 203 105 L 205 107 L 211 109 L 213 111 L 215 110 L 216 112 L 217 111 L 219 114 L 224 117 L 230 123 L 233 128 L 236 138 L 236 146 L 237 147 L 235 148 L 235 151 L 233 154 L 233 156 L 228 165 L 219 173 L 249 173 L 250 172 L 252 173 L 258 169 L 267 160 L 274 147 L 276 140 L 276 136 L 277 135 L 277 119 L 276 118 L 275 111 L 270 101 L 269 101 L 266 96 L 260 91 L 242 81 L 240 81 L 235 78 L 226 75 L 212 68 L 205 60 L 205 53 L 207 49 L 213 44 L 222 42 L 223 43 L 228 43 L 235 46 L 236 48 L 239 50 L 244 58 L 261 48 L 264 45 L 274 40 L 275 38 L 272 33 L 264 24 L 257 19 L 255 19 L 253 17 L 251 17 L 248 15 L 245 15 L 242 13 L 233 12 L 230 10 L 229 11 L 211 11 L 210 12 L 206 12 L 202 14 Z M 251 172 L 252 171 L 253 172 L 252 173 Z M 218 113 L 219 112 L 220 113 L 219 114 Z M 213 43 L 214 42 L 215 43 L 214 44 Z" fill="#2B53D6" fill-rule="evenodd"/>
</svg>